Love for All and Sharing is the first step to solving all the problems of humanity.

Websites I want to share.

    
http://www.shareintl.org/

    
http://www.lightmiddleway.com


Thank you very much

No credit for me...credit to EVERYONE for sharing
 
http://thepiratebay.org/user/raymondhome/

Duration : 1h 51mn
Copyright : http://uniongang.ru/
Video
ID : 0
Format : MPEG-4 Visual
Format profile : Advanced Simple@L5
Format settings, BVOP : Yes
Format settings, QPel : No
Format settings, GMC : No warppoints
Format settings, Matrix : Default (H.263)
Codec ID : XVID
Codec ID/Hint : XviD
Duration : 1h 51mn
Bit rate : 745 Kbps
Width : 640 pixels
Height : 272 pixels
Display aspect ratio : 2.35:1
Frame rate : 25.000 fps
Resolution : 8 bits
Colorimetry : 4:2:0
Scan type : Progressive
Bits/(Pixel*Frame) : 0.171
Stream size : 592 MiB (84%)
Writing library : XviD 1.2.1 (UTC 2008-12-04)
Audio
ID : 1
Format : MPEG Audio
Format version : Version 1
Format profile : Layer 3
Codec ID : 55
Codec ID/Hint : MP3
Duration : 1h 51mn
Bit rate mode : Constant
Bit rate : 128 Kbps
Channel(s) : 2 channels
Sampling rate : 44.1 KHz
Stream size : 102 MiB (15%)
Alignment : Split accross interleaves
Interleave, duration : 40 ms (1.00 video frame)
Interleave, preload duration : 500 ms

NOTES: (NOT MINE)
Well couldnt wait on english audio for this,wanted to see it lol
So i added mine its very clear as usual...be good enough untill a line audio comes out..

Video is ELEKTRI4KA thanks guys.

UPLOADER NOTES:
IN MY EXTREMELY HUMBLE OPINION...THIS IS PROBABLY THE BEST ONE (CAMRip) OUT SO FAR FOR THOSE WHO CAN'T WAIT...PLEASE COMMENT :)

credit 02ssei BIG TIME & to all the people who made it possible for me to share this with everyone

*****help what we can with haiti...the world is ONE big family*****